<svg version="1.1" id="Layer_1" xmlns="http://www.w3.org/2000/svg" xmlns:xlink="http://www.w3.org/1999/xlink" x="0px" y="0px"
	 width="100%" viewBox="0 0 400 400" enable-background="new 0 0 400 400" xml:space="preserve">
<path fill="#DBE1D8" opacity="1.000000" stroke="none" 
	d="
M223.000000,401.000000 
	C148.689743,401.000000 74.879471,401.000000 1.034604,401.000000 
	C1.034604,267.731415 1.034604,134.462799 1.034604,1.097093 
	C134.226883,1.097093 267.453857,1.097093 400.840424,1.097093 
	C400.840424,134.333176 400.840424,267.666565 400.840424,401.000000 
	C341.796204,401.000000 282.648102,401.000000 223.000000,401.000000 
M118.375298,210.823517 
	C117.798553,210.198730 117.221817,209.573959 116.645073,208.949188 
	C116.405266,209.967484 116.165459,210.985764 115.707794,212.658768 
	C115.790054,213.105118 115.872307,213.551483 115.755142,214.569824 
	C115.844109,215.687759 115.933083,216.805679 115.876175,218.680069 
	C116.876381,225.074692 117.436256,231.580063 119.008621,237.830765 
	C120.401718,243.368790 122.920647,248.623627 125.011269,254.689880 
	C125.640923,255.873810 126.270576,257.057739 126.928856,258.947998 
	C128.580322,261.647064 130.231796,264.346130 131.947952,267.693939 
	C132.891861,268.826538 133.835770,269.959137 134.929581,271.809753 
	C135.844498,272.917725 136.759415,274.025665 137.865189,275.668823 
	C138.880615,276.837341 139.896057,278.005890 141.136414,279.799683 
	C160.335403,300.601440 184.116959,312.136780 212.354324,312.809326 
	C243.887451,313.560364 270.207336,301.404480 290.942413,277.521301 
	C302.075806,264.697601 309.544556,249.753708 312.489197,233.224777 
	C318.195648,201.193039 311.229034,172.097092 288.994568,147.557037 
	C264.678741,120.719818 234.269958,110.591988 198.642563,115.382446 
	C196.079269,115.727112 193.589417,116.617943 191.065430,117.254829 
	C192.911209,117.888504 194.575531,117.958817 196.232407,117.877632 
	C212.658554,117.072815 227.955246,120.985374 241.922440,129.514191 
	C258.589874,139.691849 270.555084,153.821472 276.885132,172.549774 
	C285.541168,198.159668 282.658295,222.354782 267.982117,244.964340 
	C257.991211,260.355957 244.157333,271.047363 226.718170,277.100464 
	C209.119751,283.208832 191.425003,283.683014 173.964249,277.376373 
	C165.791809,274.424591 158.249924,269.726929 150.139542,265.241547 
	C149.157852,264.463593 148.176147,263.685669 146.925232,262.446777 
	C146.448517,262.238129 145.971786,262.029510 145.311447,261.348145 
	C144.722031,260.772583 144.132614,260.197052 143.382584,259.242004 
	C143.382584,259.242004 142.995438,259.100800 143.044357,258.802948 
	C142.397720,258.448883 141.751083,258.094818 140.924820,257.115448 
	C139.271973,255.410858 137.619141,253.706253 135.866364,251.327164 
	C134.043030,248.831299 132.219711,246.335434 130.194778,243.163910 
	C128.788589,240.778671 127.382401,238.393433 125.990967,235.418503 
	C125.677513,234.939148 125.364059,234.459793 125.071632,233.377106 
	C124.728851,232.912735 124.386070,232.448364 123.998230,231.401764 
	C123.693466,230.923584 123.388710,230.445419 123.087769,229.201050 
	C121.977509,225.804443 120.867256,222.407822 119.810249,218.448441 
	C119.566116,217.955704 119.321991,217.462982 119.179535,216.220932 
	C119.039558,215.484131 118.899590,214.747314 118.873482,213.452667 
	C118.710770,212.926682 118.548058,212.400696 118.375298,210.823517 
M259.935974,197.234253 
	C258.946472,196.863571 257.956970,196.492889 256.330231,195.767258 
	C244.223785,191.798080 232.073166,187.954666 220.056015,183.731400 
	C218.134903,183.056259 215.996735,180.952530 215.356094,179.040985 
	C212.831268,171.507477 210.975876,163.752960 208.653290,156.147278 
	C206.868713,150.303406 204.756241,144.559647 202.881149,138.497650 
	C202.881149,138.497650 202.677826,138.292755 202.769348,138.138458 
	C202.769348,138.138458 202.582397,137.859833 202.473175,137.074265 
	C201.670029,134.979218 200.866867,132.884155 200.063705,130.789108 
	C199.390915,130.788864 198.718124,130.788620 198.045334,130.788376 
	C197.041153,135.553040 196.036987,140.317703 194.647537,145.635941 
	C194.106689,146.756744 193.565842,147.877533 192.609772,149.630630 
	C189.725464,159.130081 186.647629,168.577240 184.059845,178.156799 
	C183.130890,181.595581 181.590393,183.136368 178.155243,184.201508 
	C167.655197,187.457260 157.326630,191.266083 146.505844,194.978424 
	C141.287003,196.469070 136.068146,197.959702 130.849304,199.450348 
	C130.902588,199.875610 130.955872,200.300858 131.009171,200.726120 
	C133.664871,201.431595 136.320587,202.137070 139.368408,203.141815 
	C139.368408,203.141815 139.846161,203.263184 140.268860,203.861816 
	C144.138962,204.981033 148.009079,206.100235 152.283203,207.830475 
	C160.963516,210.498856 169.687134,213.038651 178.290695,215.934998 
	C180.204636,216.579285 182.514420,218.141815 183.224594,219.865509 
	C185.164337,224.573654 186.312759,229.604370 187.838455,234.487366 
	C190.188080,242.007385 192.590912,249.510788 195.017990,257.797699 
	C196.338501,262.289642 197.659012,266.781586 198.979523,271.273529 
	C199.380356,271.242157 199.781189,271.210754 200.182022,271.179382 
	C201.464539,266.797211 202.747055,262.415039 204.417755,257.326691 
	C204.188431,256.933411 203.959106,256.540131 203.663925,256.137360 
	C203.663925,256.137360 203.629517,256.194305 204.378891,256.570496 
	C207.712006,245.754196 211.523544,235.053635 214.179886,224.073593 
	C215.543823,218.435623 218.667114,216.365768 223.577698,214.902100 
	C231.795364,212.452728 239.882187,209.564346 248.764297,206.825958 
	C252.507004,205.536865 256.249725,204.247787 260.763306,202.976257 
	C263.224304,202.201340 265.685303,201.426422 268.146301,200.651489 
	C268.190552,200.248367 268.234772,199.845261 268.279022,199.442139 
	C266.175140,199.002426 264.071228,198.562714 261.359467,197.993393 
	C260.947052,197.953369 260.534637,197.913330 259.935974,197.234253 
M135.040863,326.661133 
	C135.949585,327.510803 136.858307,328.360474 137.768127,329.132111 
	C137.768127,329.132111 137.789383,329.199280 138.040253,329.816223 
	C140.388351,332.114624 142.736450,334.413025 145.029114,336.888306 
	C145.029114,336.888306 145.208084,336.936523 145.373199,337.578186 
	C160.911316,351.475525 178.387543,361.914795 198.424484,368.073517 
	C228.231323,377.235229 257.707336,376.645355 287.556366,365.868927 
	C288.036163,365.568573 288.515991,365.268219 289.729584,364.926697 
	C309.831299,357.016449 327.199310,345.238007 341.736725,329.137268 
	C365.147644,303.208710 377.040375,272.805023 377.392151,238.011520 
	C377.676636,209.872894 370.048218,184.005600 354.224121,160.495102 
	C342.699463,143.372482 328.172302,129.572922 310.644684,118.945251 
	C291.009521,107.039688 269.606934,100.528984 246.612686,99.894691 
	C239.389130,99.695442 232.092361,100.207596 224.907715,101.058128 
	C216.880890,102.008369 208.943451,103.713577 200.198380,105.041824 
	C197.133331,105.979630 194.068283,106.917442 191.003220,107.855255 
	C191.141388,108.502708 191.279541,109.150162 191.417709,109.797615 
	C195.740280,108.935257 200.062866,108.072906 205.271790,107.305130 
	C215.787277,107.869171 226.339111,108.072227 236.805222,109.126396 
	C243.582062,109.808975 250.233582,111.735664 256.978760,113.027420 
	C256.978760,113.027420 256.900879,113.064034 257.162720,113.742004 
	C266.825989,119.413239 276.947662,124.447639 286.001831,130.965027 
	C292.770599,135.837311 298.162323,142.622620 304.250488,148.749969 
	C304.250488,148.749969 304.444092,148.833786 304.726074,149.412384 
	C307.739624,154.129684 311.120880,158.654907 313.702911,163.597626 
	C324.733368,184.713211 329.382172,207.006317 326.054138,230.863754 
	C323.026855,252.565109 314.302429,271.535858 299.380402,288.127045 
	C296.267395,289.757050 292.025085,290.410370 292.857666,295.865082 
	C292.857666,295.865082 292.555267,296.014160 291.909912,295.567932 
	C290.650726,296.171295 289.204498,296.548950 288.161652,297.413300 
	C278.936554,305.059082 268.970612,311.432495 257.682343,315.611450 
	C251.101135,318.047821 244.526779,320.502594 237.030884,322.962036 
	C231.742813,323.311005 226.457291,323.908783 221.166214,323.962463 
	C205.150345,324.125092 189.631210,321.521240 174.904922,314.960632 
	C171.736481,313.549103 168.227646,312.589386 165.489471,310.583527 
	C157.572327,304.783844 149.979355,298.542572 142.233185,292.507904 
	C140.212860,290.933960 138.097900,289.481506 135.991592,287.239624 
	C135.557724,285.999207 135.470581,284.413574 134.634384,283.573669 
	C128.664749,277.577515 125.581718,269.905914 121.533592,262.694183 
	C113.411819,248.225250 110.032173,232.747803 110.189247,216.567123 
	C110.297691,205.395203 112.187889,194.240601 113.279953,183.097626 
	C107.079590,185.751389 107.307472,191.206421 107.163643,197.277008 
	C105.271912,208.902130 102.385262,220.469421 101.705627,232.164978 
	C100.474663,253.347778 104.458611,273.810760 113.911308,293.061920 
	C113.911308,293.061920 113.953491,293.090240 113.951485,293.821259 
	C119.095505,305.186920 125.542450,315.721466 134.062973,325.502930 
	C134.233994,325.807220 134.491013,325.991608 135.040863,326.661133 
M392.092712,223.739822 
	C391.886078,207.132202 393.110474,190.354675 391.163177,173.953720 
	C387.545258,143.481339 375.730865,115.811203 358.019318,90.663803 
	C342.307220,68.355316 322.643646,50.304077 299.372864,36.285454 
	C277.223145,22.942171 253.166580,14.511243 227.522247,11.027630 
	C206.951920,8.233291 186.454483,8.614064 165.911667,12.374306 
	C145.589432,16.094172 126.452240,22.875788 108.492073,32.794632 
	C79.513046,48.798851 56.020924,70.720924 38.210064,98.827309 
	C18.457703,129.997467 8.585557,163.951431 8.256926,200.700089 
	C8.003650,229.022232 13.756349,256.055847 25.624279,281.934082 
	C38.325497,309.629333 56.391373,333.060425 79.967705,352.073914 
	C107.013710,373.885498 137.888321,387.555115 172.380951,392.573608 
	C192.261780,395.466156 212.161118,395.542389 232.740265,392.011658 
	C233.697220,391.777802 234.654190,391.543915 235.861526,391.401154 
	C235.861526,391.401154 236.020355,391.187256 236.666275,391.301727 
	C239.451340,390.554077 242.236404,389.806458 245.733719,389.128174 
	C246.855164,388.829926 247.976593,388.531677 249.918625,388.239349 
	C254.283203,386.977905 258.647797,385.716461 263.012360,384.455017 
	C262.868134,383.849365 262.723877,383.243744 262.579620,382.638092 
	C257.382355,383.149811 252.185089,383.661530 246.090912,384.078796 
	C243.406555,384.283295 240.722198,384.487762 237.365860,384.396454 
	C236.897156,384.494965 236.428467,384.593506 235.202606,384.428528 
	C234.147278,384.514069 233.091934,384.599609 231.395111,384.351990 
	C230.920074,384.380341 230.445023,384.408722 229.072586,384.192444 
	C194.875397,382.955139 164.635437,371.379791 138.252991,349.586365 
	C107.031006,323.795258 89.008339,290.650787 85.026649,250.540466 
	C80.809181,208.054947 93.382477,170.521606 121.729919,138.409027 
	C144.886185,112.177132 173.878693,95.931366 208.132233,89.975319 
	C248.036453,83.036713 285.434235,90.292046 319.569611,112.795296 
	C348.785553,132.055527 368.826477,158.320847 379.535461,191.510757 
	C382.616119,201.058456 384.024689,211.145676 386.043152,221.742737 
	C386.159027,222.504669 386.274872,223.266602 386.260956,224.730042 
	C386.454651,226.136627 386.648346,227.543213 386.554382,229.302856 
	C386.698822,229.869995 386.843262,230.437119 386.892365,231.900604 
	C386.947784,234.600388 387.003174,237.300171 386.800140,240.749115 
	C386.506989,242.796509 386.213837,244.843887 385.920685,246.891281 
	C386.578979,246.991608 387.237274,247.091934 387.895569,247.192276 
	C388.266296,245.128754 388.637024,243.065247 389.394531,240.282333 
	C390.160187,235.024429 390.925842,229.766541 391.616089,224.456848 
	C391.616089,224.456848 391.692291,224.406204 392.092712,223.739822 
M115.995338,205.978973 
	C116.480675,206.261673 116.966019,206.544388 117.451355,206.827087 
	C117.535744,206.092377 117.620132,205.357666 117.704521,204.622955 
	C117.131874,204.748581 116.559219,204.874207 115.995338,205.978973 
z"/>
<path fill="#020202" opacity="1.000000" stroke="none" 
	d="
M238.037842,384.692261 
	C240.722198,384.487762 243.406555,384.283295 246.622620,384.448334 
	C247.802231,385.956390 248.450134,387.094910 249.098038,388.233429 
	C247.976593,388.531677 246.855164,388.829926 245.121399,388.835205 
	C241.679504,389.423920 238.849930,390.305573 236.020355,391.187256 
	C236.020355,391.187256 235.861526,391.401154 235.424866,391.200806 
	C233.989166,391.293549 232.990097,391.586639 231.991043,391.879730 
	C212.161118,395.542389 192.261780,395.466156 172.380951,392.573608 
	C137.888321,387.555115 107.013710,373.885498 79.967705,352.073914 
	C56.391373,333.060425 38.325497,309.629333 25.624279,281.934082 
	C13.756349,256.055847 8.003650,229.022232 8.256926,200.700089 
	C8.585557,163.951431 18.457703,129.997467 38.210064,98.827309 
	C56.020924,70.720924 79.513046,48.798851 108.492073,32.794632 
	C126.452240,22.875788 145.589432,16.094172 165.911667,12.374306 
	C186.454483,8.614064 206.951920,8.233291 227.522247,11.027630 
	C253.166580,14.511243 277.223145,22.942171 299.372864,36.285454 
	C322.643646,50.304077 342.307220,68.355316 358.019318,90.663803 
	C375.730865,115.811203 387.545258,143.481339 391.163177,173.953720 
	C393.110474,190.354675 391.886078,207.132202 391.607452,224.007141 
	C390.837585,224.322800 390.552948,224.371155 390.268341,224.419495 
	C390.742737,224.449219 391.217102,224.478928 391.691498,224.508636 
	C390.925842,229.766541 390.160187,235.024429 388.949829,240.532486 
	C388.022949,240.521744 387.540771,240.260849 387.058594,239.999954 
	C387.003174,237.300171 386.947784,234.600388 387.144745,231.281815 
	C387.212097,230.091949 387.027069,229.520874 386.842041,228.949799 
	C386.648346,227.543213 386.454651,226.136627 386.612427,224.296707 
	C386.709259,222.904083 386.454590,221.944794 386.199890,220.985519 
	C384.024689,211.145676 382.616119,201.058456 379.535461,191.510757 
	C368.826477,158.320847 348.785553,132.055527 319.569611,112.795296 
	C285.434235,90.292046 248.036453,83.036713 208.132233,89.975319 
	C173.878693,95.931366 144.886185,112.177132 121.729919,138.409027 
	C93.382477,170.521606 80.809181,208.054947 85.026649,250.540466 
	C89.008339,290.650787 107.031006,323.795258 138.252991,349.586365 
	C164.635437,371.379791 194.875397,382.955139 229.568390,384.547363 
	C230.721664,384.829926 231.379135,384.757507 232.036606,384.685120 
	C233.091934,384.599609 234.147278,384.514069 235.654709,384.771423 
	C236.750488,384.973633 237.394165,384.832947 238.037842,384.692261 
M244.142899,386.314331 
	C244.069855,386.441528 243.996826,386.568695 243.923798,386.695892 
	C244.040436,386.641693 244.157089,386.587494 244.142899,386.314331 
z"/>
<path fill="#870116" opacity="1.000000" stroke="none" 
	d="
M288.995789,364.967896 
	C288.515991,365.268219 288.036163,365.568573 287.012329,365.639893 
	C284.429626,365.373810 282.283203,364.902985 280.371643,365.377686 
	C273.532623,367.076080 266.853699,370.265686 259.966187,370.739716 
	C247.139999,371.622345 234.134903,371.843079 221.348114,370.712433 
	C212.040161,369.889435 202.962509,366.455627 193.787064,364.166229 
	C193.485611,364.091003 193.257797,363.758911 192.961441,363.619080 
	C189.456573,361.965668 185.830093,360.531494 182.458084,358.642548 
	C173.885040,353.839935 165.483429,348.730408 156.893982,343.958344 
	C152.911957,341.746063 151.302322,335.583954 145.208084,336.936523 
	C145.208084,336.936523 145.029114,336.888306 145.043961,336.419556 
	C145.324753,330.804932 142.888977,328.568024 137.789383,329.199280 
	C137.789383,329.199280 137.768127,329.132111 137.828842,328.822571 
	C137.597198,327.667725 137.304855,326.822418 136.952072,325.669098 
	C136.261719,324.906433 135.631821,324.451782 134.840210,323.701721 
	C129.029922,314.430054 123.431000,305.421722 117.680466,296.511292 
	C116.795609,295.140228 115.213257,294.219330 113.953491,293.090240 
	C113.953491,293.090240 113.911308,293.061920 113.951553,292.628113 
	C113.250046,288.841797 112.530510,285.484253 111.762169,282.137878 
	C109.838791,273.760803 107.893280,265.388794 106.256790,256.845703 
	C108.282768,252.263245 107.455177,250.671814 103.058243,249.512573 
	C103.032402,243.364792 103.022247,237.683380 103.266975,231.804016 
	C107.156181,229.167725 105.447693,232.698227 106.016014,233.791107 
	C108.054680,237.711395 103.934059,244.152039 111.143028,246.209442 
	C111.494690,246.686249 111.766739,246.870590 112.059845,246.978790 
	C112.023972,246.986679 112.053207,246.919281 112.039673,247.257141 
	C112.318069,248.410492 112.610016,249.225952 112.948593,250.235687 
	C112.995232,250.429932 113.035690,250.827393 113.023605,251.226379 
	C113.633751,253.108292 114.255974,254.591232 114.920837,256.274170 
	C114.963470,256.474152 115.022720,256.878845 115.101929,257.106934 
	C115.346672,257.618835 115.567085,257.850403 115.917191,258.217590 
	C115.992004,258.405426 116.054314,258.804993 116.163483,259.067108 
	C116.550507,259.582672 116.828346,259.836151 117.173691,260.210052 
	C117.241188,260.330505 117.136490,260.586060 117.008453,260.898407 
	C117.249687,262.472076 117.618958,263.733368 118.175056,265.213806 
	C118.710861,265.583160 119.059830,265.733429 119.593948,265.973907 
	C119.955452,266.288483 120.047371,266.543335 120.037827,267.237823 
	C120.744308,269.054688 121.467850,270.462372 122.146240,271.903137 
	C122.101089,271.936249 122.135162,271.829590 122.153030,272.154480 
	C122.649826,272.732941 123.128746,272.986481 123.680832,273.300720 
	C123.754013,273.361450 123.779335,273.549957 123.586578,273.918640 
	C123.327164,278.319336 124.656464,281.300812 129.089371,281.944031 
	C129.045486,281.974548 129.092499,281.878510 129.070908,282.253723 
	C129.715591,284.113525 130.283737,285.652008 131.064117,287.074036 
	C135.987579,296.045410 144.751892,301.120697 152.043533,307.695465 
	C156.081436,311.336395 160.461365,314.094208 166.360367,313.967773 
	C166.568344,313.979523 166.973953,314.074677 167.124405,314.273193 
	C167.515625,314.712708 167.800507,314.877289 168.345978,314.990509 
	C168.562408,315.015472 168.976486,315.151184 169.038635,315.480469 
	C170.773514,316.478210 172.446274,317.146667 174.429855,317.879944 
	C175.157898,318.016388 175.575119,318.088074 176.142242,318.342896 
	C176.530243,318.744324 176.806213,318.891632 177.337433,318.997437 
	C177.554749,319.026855 177.970840,319.165619 178.089417,319.511047 
	C179.833649,320.216583 181.459290,320.576660 183.044006,320.956116 
	C183.003082,320.975464 183.059296,320.904449 183.095596,321.281189 
	C184.741653,326.650391 189.189697,324.724152 192.436783,325.234863 
	C201.798828,326.707367 211.198547,328.164001 220.639206,328.801239 
	C224.345093,329.051392 228.199020,327.108704 232.242416,326.096222 
	C232.674301,326.055969 232.849289,326.084167 233.322052,326.347717 
	C238.762375,326.102570 243.919418,325.722595 249.024994,324.985931 
	C249.534912,324.912323 249.731903,322.670074 250.097427,321.370422 
	C250.120728,321.306549 250.256012,321.292938 250.682709,321.446350 
	C256.717407,319.872711 262.603302,318.734924 267.857208,316.257111 
	C273.394867,313.645508 278.335541,309.764313 283.524567,306.418518 
	C287.056732,304.140991 290.759399,302.070709 294.029236,299.460968 
	C296.826385,297.228516 299.306824,294.515991 301.579163,291.731689 
	C304.051178,288.702728 306.089325,285.322876 308.375244,282.138062 
	C311.177521,278.233795 314.480865,274.612579 316.756714,270.427979 
	C319.155579,266.017273 320.894867,261.178711 322.391510,256.362183 
	C324.818817,248.550735 328.259888,240.682587 328.689240,232.699432 
	C329.584808,216.048477 330.102417,199.290512 324.337036,182.985901 
	C320.172791,171.209351 315.488708,159.881287 307.596191,150.111343 
	C306.973083,149.340042 305.514435,149.243774 304.444092,148.833786 
	C304.444092,148.833786 304.250488,148.749969 304.393433,148.288269 
	C304.416138,147.025146 304.583344,145.965302 304.131165,145.462296 
	C299.580994,140.400772 295.409912,134.840134 290.183533,130.585114 
	C283.743896,125.342308 276.612366,120.833870 269.361237,116.751556 
	C265.681976,114.680145 261.083679,114.241066 256.900879,113.064034 
	C256.900879,113.064034 256.978760,113.027420 256.930420,112.768494 
	C249.847794,106.989326 241.256134,107.150513 233.032761,106.017761 
	C228.594604,105.406410 224.130249,104.985130 219.677719,104.478104 
	C228.042068,102.770439 236.371368,101.198044 244.604172,101.600296 
	C253.452438,102.032623 262.249237,104.123520 270.991547,105.874718 
	C275.656555,106.809158 280.256958,108.296806 284.713348,109.990479 
	C292.215912,112.841888 299.762299,115.688957 306.941406,119.242622 
	C312.022369,121.757690 316.536346,125.422661 321.281799,128.606537 
	C322.090424,129.149078 322.851166,129.795212 323.526947,130.496613 
	C324.831451,131.850540 326.035095,133.301132 327.325775,134.668945 
	C328.783203,136.213470 330.264160,137.738022 331.785919,139.218842 
	C332.698364,140.106735 333.706329,140.896805 334.674988,141.726624 
	C336.604950,143.379990 338.816162,144.799728 340.412659,146.728638 
	C344.101715,151.185776 347.783264,155.700287 350.933624,160.539368 
	C355.062347,166.881287 359.197235,173.317307 362.362427,180.160187 
	C365.388519,186.702438 367.656036,193.698578 369.394806,200.709045 
	C371.991028,211.176483 374.516205,221.753189 375.736511,232.435928 
	C376.470001,238.857101 374.371674,245.554306 374.068054,252.151489 
	C373.474304,265.052246 369.752502,276.995422 364.026154,288.448486 
	C362.364441,291.772034 361.324646,295.420197 359.536316,298.664062 
	C355.765869,305.503418 351.997528,312.383209 347.619476,318.833221 
	C345.086487,322.565002 341.871887,326.409485 338.037018,328.514221 
	C334.482025,330.465332 331.820251,332.480438 330.126221,336.043671 
	C329.500214,337.360382 328.671967,338.637482 327.702759,339.724823 
	C323.033264,344.963470 315.975861,346.645050 310.863708,351.920044 
	C306.201111,356.731171 298.145111,358.201477 291.706696,361.390472 
	C290.506805,361.984772 289.884583,363.745483 288.995789,364.967896 
z"/>
<path fill="#040404" opacity="1.000000" stroke="none" 
	d="
M119.757004,219.011230 
	C120.867256,222.407822 121.977509,225.804443 122.874435,229.764206 
	C123.121834,230.879562 123.582565,231.431778 124.043289,231.983994 
	C124.386070,232.448364 124.728851,232.912735 124.853828,233.856232 
	C125.082756,234.892990 125.529480,235.450592 125.976212,236.008194 
	C127.382401,238.393433 128.788589,240.778671 129.997375,243.712036 
	C130.214523,246.890305 130.629089,249.520432 131.020172,252.001663 
	C133.031128,252.001663 134.498703,252.001663 135.966293,252.001663 
	C137.619141,253.706253 139.271973,255.410858 140.955719,257.777740 
	C140.866531,259.302002 140.746460,260.163971 140.443604,262.338013 
	C141.833710,260.574524 142.414566,259.837646 142.995422,259.100800 
	C142.995438,259.100800 143.382584,259.242004 143.422058,259.870026 
	C144.139389,260.938965 144.817230,261.379913 145.495071,261.820862 
	C145.971786,262.029510 146.448517,262.238129 146.796234,262.891144 
	C145.734955,267.463989 147.865952,266.963593 150.422272,265.820496 
	C158.249924,269.726929 165.791809,274.424591 173.964249,277.376373 
	C191.425003,283.683014 209.119751,283.208832 226.718170,277.100464 
	C244.157333,271.047363 257.991211,260.355957 267.982117,244.964340 
	C282.658295,222.354782 285.541168,198.159668 276.885132,172.549774 
	C270.555084,153.821472 258.589874,139.691849 241.922440,129.514191 
	C227.955246,120.985374 212.658554,117.072815 196.232407,117.877632 
	C194.575531,117.958817 192.911209,117.888504 191.065430,117.254829 
	C193.589417,116.617943 196.079269,115.727112 198.642563,115.382446 
	C234.269958,110.591988 264.678741,120.719818 288.994568,147.557037 
	C311.229034,172.097092 318.195648,201.193039 312.489197,233.224777 
	C309.544556,249.753708 302.075806,264.697601 290.942413,277.521301 
	C270.207336,301.404480 243.887451,313.560364 212.354324,312.809326 
	C184.116959,312.136780 160.335403,300.601440 141.222321,279.218201 
	C141.844894,277.258667 142.381546,275.880615 142.918213,274.502594 
	C141.170242,274.712921 139.422272,274.923279 137.674316,275.133636 
	C136.759415,274.025665 135.844498,272.917725 135.104340,271.256622 
	C134.147156,269.484070 133.015213,268.264618 131.883270,267.045197 
	C130.231796,264.346130 128.580322,261.647064 126.942261,258.205200 
	C126.284637,256.309418 125.613609,255.156433 124.942581,254.003464 
	C122.920647,248.623627 120.401718,243.368790 119.008621,237.830765 
	C117.436256,231.580063 116.876381,225.074692 116.401718,218.648621 
	C117.285614,218.743958 117.643959,218.870758 118.294739,219.001312 
	C118.977119,219.007126 119.367065,219.009171 119.757004,219.011230 
M138.059479,259.309692 
	C137.522064,259.654144 136.984650,259.998596 136.447250,260.343048 
	C136.757523,260.661163 137.067795,260.979279 137.378052,261.297394 
	C137.746216,260.759674 138.114380,260.221954 138.059479,259.309692 
z"/>
<path fill="#7A1220" opacity="1.000000" stroke="none" 
	d="
M289.362671,364.947296 
	C289.884583,363.745483 290.506805,361.984772 291.706696,361.390472 
	C298.145111,358.201477 306.201111,356.731171 310.863708,351.920044 
	C315.975861,346.645050 323.033264,344.963470 327.702759,339.724823 
	C328.671967,338.637482 329.500214,337.360382 330.126221,336.043671 
	C331.820251,332.480438 334.482025,330.465332 338.037018,328.514221 
	C341.871887,326.409485 345.086487,322.565002 347.619476,318.833221 
	C351.997528,312.383209 355.765869,305.503418 359.536316,298.664062 
	C361.324646,295.420197 362.364441,291.772034 364.026154,288.448486 
	C369.752502,276.995422 373.474304,265.052246 374.068054,252.151489 
	C374.371674,245.554306 376.470001,238.857101 375.736511,232.435928 
	C374.516205,221.753189 371.991028,211.176483 369.394806,200.709045 
	C367.656036,193.698578 365.388519,186.702438 362.362427,180.160187 
	C359.197235,173.317307 355.062347,166.881287 350.933624,160.539368 
	C347.783264,155.700287 344.101715,151.185776 340.412659,146.728638 
	C338.816162,144.799728 336.604950,143.379990 334.674988,141.726624 
	C333.706329,140.896805 332.698364,140.106735 331.785919,139.218842 
	C330.264160,137.738022 328.783203,136.213470 327.325775,134.668945 
	C326.035095,133.301132 324.831451,131.850540 323.526947,130.496613 
	C322.851166,129.795212 322.090424,129.149078 321.281799,128.606537 
	C316.536346,125.422661 312.022369,121.757690 306.941406,119.242622 
	C299.762299,115.688957 292.215912,112.841888 284.713348,109.990479 
	C280.256958,108.296806 275.656555,106.809158 270.991547,105.874718 
	C262.249237,104.123520 253.452438,102.032623 244.604172,101.600296 
	C236.371368,101.198044 228.042068,102.770439 219.677719,104.478104 
	C224.130249,104.985130 228.594604,105.406410 233.032761,106.017761 
	C241.256134,107.150513 249.847794,106.989326 256.911682,112.807220 
	C250.233582,111.735664 243.582062,109.808975 236.805222,109.126396 
	C226.339111,108.072227 215.787277,107.869171 204.458405,107.198807 
	C202.752396,106.425056 201.859756,105.757629 200.967102,105.090202 
	C208.943451,103.713577 216.880890,102.008369 224.907715,101.058128 
	C232.092361,100.207596 239.389130,99.695442 246.612686,99.894691 
	C269.606934,100.528984 291.009521,107.039688 310.644684,118.945251 
	C328.172302,129.572922 342.699463,143.372482 354.224121,160.495102 
	C370.048218,184.005600 377.676636,209.872894 377.392151,238.011520 
	C377.040375,272.805023 365.147644,303.208710 341.736725,329.137268 
	C327.199310,345.238007 309.831299,357.016449 289.362671,364.947296 
z"/>
<path fill="#0B0907" opacity="1.000000" stroke="none" 
	d="
M202.789581,138.771378 
	C204.756241,144.559647 206.868713,150.303406 208.653290,156.147278 
	C210.975876,163.752960 212.831268,171.507477 215.356094,179.040985 
	C215.996735,180.952530 218.134903,183.056259 220.056015,183.731400 
	C232.073166,187.954666 244.223785,191.798080 256.400452,196.164352 
	C255.607574,196.737000 254.744476,196.912552 253.646637,196.963669 
	C252.280136,196.845520 251.148361,196.851807 249.848694,196.593796 
	C248.452866,196.213486 247.224960,196.097473 245.572388,195.983856 
	C243.465790,195.833801 241.783813,195.681320 240.010834,195.305115 
	C239.280182,195.046265 238.640549,195.011124 237.675308,194.968292 
	C236.918396,194.911026 236.487106,194.861450 235.944550,194.494171 
	C234.223785,194.100998 232.614273,194.025558 230.579773,193.956055 
	C228.463333,193.853546 226.771896,193.745087 224.911209,193.310913 
	C221.159698,192.986588 217.577423,192.987976 213.625458,192.985504 
	C211.800888,191.706619 210.346008,190.431610 208.888382,188.807098 
	C207.937805,187.630493 206.989944,186.803375 205.970154,185.578827 
	C205.585510,182.459091 205.272812,179.736771 205.160492,176.845795 
	C204.997025,176.093536 204.633194,175.509949 204.221161,174.504745 
	C204.136673,172.383850 204.100372,170.684540 204.311798,168.682785 
	C203.756882,163.904602 202.954254,159.428894 202.111938,154.584869 
	C202.052933,153.476120 202.033600,152.735687 202.240204,151.788574 
	C202.262100,150.713074 202.058075,149.844238 201.836639,148.577225 
	C201.757767,147.115829 201.696289,146.052643 201.957245,144.747421 
	C202.449646,142.594055 202.619614,140.682724 202.789581,138.771378 
z"/>
<path fill="#7A1220" opacity="1.000000" stroke="none" 
	d="
M304.585083,149.123077 
	C305.514435,149.243774 306.973083,149.340042 307.596191,150.111343 
	C315.488708,159.881287 320.172791,171.209351 324.337036,182.985901 
	C330.102417,199.290512 329.584808,216.048477 328.689240,232.699432 
	C328.259888,240.682587 324.818817,248.550735 322.391510,256.362183 
	C320.894867,261.178711 319.155579,266.017273 316.756714,270.427979 
	C314.480865,274.612579 311.177521,278.233795 308.375244,282.138062 
	C306.089325,285.322876 304.051178,288.702728 301.579163,291.731689 
	C299.306824,294.515991 296.826385,297.228516 294.029236,299.460968 
	C290.759399,302.070709 287.056732,304.140991 283.524567,306.418518 
	C278.335541,309.764313 273.394867,313.645508 267.857208,316.257111 
	C262.603302,318.734924 256.717407,319.872711 251.023773,321.287476 
	C251.822830,320.561371 252.677597,320.059601 253.596680,319.746796 
	C268.346283,314.726318 281.345581,306.841309 292.555267,296.014160 
	C292.555267,296.014160 292.857666,295.865082 293.182770,295.571655 
	C295.703369,292.882874 297.898895,290.487518 300.094391,288.092163 
	C314.302429,271.535858 323.026855,252.565109 326.054138,230.863754 
	C329.382172,207.006317 324.733368,184.713211 313.702911,163.597626 
	C311.120880,158.654907 307.739624,154.129684 304.585083,149.123077 
z"/>
<path fill="#080605" opacity="1.000000" stroke="none" 
	d="
M146.931351,194.859756 
	C157.326630,191.266083 167.655197,187.457260 178.155243,184.201508 
	C181.590393,183.136368 183.130890,181.595581 184.059845,178.156799 
	C186.647629,168.577240 189.725464,159.130081 193.054062,149.122406 
	C194.087784,147.777206 194.677216,146.940247 195.477539,146.339386 
	C195.927170,147.161453 196.165909,147.747421 196.357758,148.703583 
	C196.437286,151.351761 196.563705,153.629745 196.389755,156.033356 
	C195.339981,158.092163 192.159103,159.913452 195.837051,162.360626 
	C195.836075,163.086395 195.816269,163.501129 195.436188,163.962967 
	C194.525620,164.317505 193.492783,164.630859 193.496475,164.931473 
	C193.566315,170.618042 193.758575,176.303085 193.918732,182.311249 
	C193.864548,183.061859 193.817001,183.489670 193.517456,183.988464 
	C193.186859,184.709869 193.108292,185.360275 192.968109,186.346298 
	C190.926346,188.857712 188.946228,191.033508 186.527283,193.169952 
	C183.748001,193.223816 181.407547,193.317017 178.746490,193.295197 
	C177.974167,193.151749 177.522415,193.123322 176.839935,193.146759 
	C176.311768,193.324631 176.066803,193.517303 175.495804,193.782990 
	C174.108368,193.805817 173.099380,193.822311 171.962326,193.713135 
	C171.530151,193.682449 171.226028,193.777466 170.562714,193.877136 
	C167.865982,194.023117 165.528442,194.164444 162.838089,194.220978 
	C161.657700,194.468170 160.830124,194.800171 159.604370,195.137268 
	C157.885345,195.219757 156.564499,195.297180 154.893295,195.276672 
	C153.641037,195.690445 152.739105,196.202148 151.542679,196.745819 
	C150.854614,196.810669 150.461075,196.843567 149.915283,196.698471 
	C149.517395,196.306412 149.231842,196.191376 148.699341,196.162170 
	C148.492325,196.148987 148.077515,196.156418 147.838272,195.986389 
	C147.376480,195.497498 147.153915,195.178619 146.931351,194.859756 
z"/>
<path fill="#0B0706" opacity="1.000000" stroke="none" 
	d="
M194.971176,257.021240 
	C192.590912,249.510788 190.188080,242.007385 187.838455,234.487366 
	C186.312759,229.604370 185.164337,224.573654 183.224594,219.865509 
	C182.514420,218.141815 180.204636,216.579285 178.290695,215.934998 
	C169.687134,213.038651 160.963516,210.498856 152.206299,207.249817 
	C152.424805,206.141647 152.720200,205.614120 153.354675,205.075592 
	C154.143951,205.017670 154.594131,204.970779 155.020645,204.973053 
	C154.996994,205.022217 154.940872,205.115768 155.023163,205.415833 
	C156.079086,205.783768 157.052734,205.851654 158.353241,205.941391 
	C159.115173,206.003876 159.550262,206.044510 160.125031,206.274612 
	C160.484848,206.700363 160.749557,206.864838 161.442200,206.981567 
	C162.584000,206.907669 163.342468,206.809723 164.512421,206.736176 
	C166.296295,206.779480 167.668701,206.798386 169.230499,207.086166 
	C170.627426,207.294662 171.834930,207.234299 173.368317,207.165237 
	C174.126877,207.117447 174.559570,207.078354 175.322266,207.072449 
	C176.093750,207.093506 176.535233,207.081329 177.299194,207.314209 
	C181.731796,208.409485 185.841934,209.259750 189.965698,210.480743 
	C191.254684,212.914246 192.530045,214.977005 193.858887,217.366241 
	C193.929764,218.133148 193.947174,218.573578 193.775925,219.182159 
	C193.946487,219.918167 194.305725,220.486008 194.740936,221.415741 
	C194.912216,222.511108 195.007507,223.244598 195.005753,224.219620 
	C194.858215,224.627167 194.807739,224.793198 194.425293,225.092880 
	C191.941055,228.952805 193.191849,232.107208 195.801331,235.478180 
	C196.238312,240.275589 196.616989,244.637863 196.792755,249.163361 
	C196.758423,249.892593 196.926987,250.458618 197.118179,251.352509 
	C197.165497,252.118088 197.190201,252.555847 196.970490,253.167572 
	C196.141113,254.568100 195.556152,255.794678 194.971176,257.021240 
z"/>
<path fill="#0A0706" opacity="1.000000" stroke="none" 
	d="
M248.024078,206.860733 
	C239.882187,209.564346 231.795364,212.452728 223.577698,214.902100 
	C218.667114,216.365768 215.543823,218.435623 214.179886,224.073593 
	C211.523544,235.053635 207.712006,245.754196 203.849060,256.012146 
	C202.873001,253.968979 202.426773,252.484177 201.973816,250.627228 
	C202.030853,249.514206 202.094620,248.773346 202.513443,247.893738 
	C203.618820,242.660080 204.569794,237.583969 205.049438,232.463699 
	C205.373398,229.005615 205.033173,225.485291 204.980804,221.551758 
	C205.103577,218.496994 205.235580,215.883301 205.576324,213.225830 
	C205.785065,213.182053 206.206299,213.092026 206.531525,213.020691 
	C208.573868,211.431534 210.291000,209.913712 212.371887,208.290771 
	C213.486420,208.153275 214.237183,208.120895 215.315277,208.340607 
	C218.789185,208.719452 221.983521,209.235275 225.068161,208.856873 
	C227.819962,208.519302 230.450516,207.193375 233.550476,206.256165 
	C235.642654,206.156189 237.318954,206.103638 239.278778,206.293625 
	C242.382904,206.644363 245.203491,206.752548 248.024078,206.860733 
z"/>
<path fill="#7A1220" opacity="1.000000" stroke="none" 
	d="
M145.290649,337.257355 
	C151.302322,335.583954 152.911957,341.746063 156.893982,343.958344 
	C165.483429,348.730408 173.885040,353.839935 182.458084,358.642548 
	C185.830093,360.531494 189.456573,361.965668 192.961441,363.619080 
	C193.257797,363.758911 193.485611,364.091003 193.787064,364.166229 
	C202.962509,366.455627 212.040161,369.889435 221.348114,370.712433 
	C234.134903,371.843079 247.139999,371.622345 259.966187,370.739716 
	C266.853699,370.265686 273.532623,367.076080 280.371643,365.377686 
	C282.283203,364.902985 284.429626,365.373810 286.720154,365.635254 
	C257.707336,376.645355 228.231323,377.235229 198.424484,368.073517 
	C178.387543,361.914795 160.911316,351.475525 145.290649,337.257355 
z"/>
<path fill="#EDC8C6" opacity="1.000000" stroke="none" 
	d="
M233.024261,326.112366 
	C232.849289,326.084167 232.674301,326.055969 231.787292,326.036316 
	C227.018341,326.343231 222.921051,327.157288 218.912033,326.843597 
	C206.808456,325.896454 194.649994,325.040649 183.059296,320.904449 
	C183.059296,320.904449 183.003082,320.975464 182.897614,320.614929 
	C181.185028,319.891479 179.577942,319.528534 177.970840,319.165619 
	C177.970840,319.165619 177.554749,319.026855 177.244415,318.735474 
	C176.620178,318.349304 176.306244,318.254547 175.992325,318.159790 
	C175.575119,318.088074 175.157898,318.016388 174.265945,317.586670 
	C172.186295,316.536163 170.581390,315.843658 168.976486,315.151184 
	C168.976486,315.151184 168.562408,315.015472 168.241684,314.713684 
	C167.605286,314.299469 167.289627,314.187073 166.973953,314.074677 
	C166.973953,314.074677 166.568344,313.979523 166.181168,313.658020 
	C154.151169,306.962860 143.868088,298.912781 135.534744,288.488892 
	C135.698593,288.316956 136.026413,287.973236 136.026398,287.973236 
	C138.097900,289.481506 140.212860,290.933960 142.233185,292.507904 
	C149.979355,298.542572 157.572327,304.783844 165.489471,310.583527 
	C168.227646,312.589386 171.736481,313.549103 174.904922,314.960632 
	C189.631210,321.521240 205.150345,324.125092 221.166214,323.962463 
	C226.457291,323.908783 231.742813,323.311005 237.690613,323.056335 
	C238.609116,323.307495 238.825012,323.510071 238.628815,323.797119 
	C236.514465,324.594757 234.769363,325.353577 233.024261,326.112366 
z"/>
<path fill="#EDC8C6" opacity="1.000000" stroke="none" 
	d="
M113.035690,250.827393 
	C113.035690,250.827393 112.995232,250.429932 113.077423,249.889511 
	C112.790810,248.539154 112.422005,247.729218 112.053207,246.919281 
	C112.053207,246.919281 112.023972,246.986679 112.054901,246.613647 
	C111.765038,245.443695 111.444252,244.646774 111.111008,243.893768 
	C111.098564,243.937668 111.189575,243.944504 111.148026,243.573471 
	C110.757584,242.105362 110.408699,241.008286 110.047935,239.945953 
	C110.036064,239.980698 110.109459,239.977966 110.110420,239.578247 
	C109.758820,237.750732 109.406265,236.322906 109.018219,234.576965 
	C108.935677,233.835373 108.888626,233.411880 108.958473,232.532043 
	C109.075371,219.180618 109.075371,206.285538 109.075371,193.382324 
	C108.527267,194.365906 107.915787,195.463196 107.304306,196.560501 
	C107.307472,191.206421 107.079590,185.751389 113.279953,183.097626 
	C112.187889,194.240601 110.297691,205.395203 110.189247,216.567123 
	C110.032173,232.747803 113.411819,248.225250 121.533592,262.694183 
	C125.581718,269.905914 128.664749,277.577515 134.634384,283.573669 
	C135.470581,284.413574 135.557724,285.999207 136.009003,287.606445 
	C136.026413,287.973236 135.698593,288.316956 135.287674,288.268188 
	C132.948669,286.105804 131.020584,283.992157 129.092499,281.878510 
	C129.092499,281.878510 129.045486,281.974548 129.056274,281.588196 
	C127.304489,278.651215 125.541916,276.100586 123.779335,273.549957 
	C123.779335,273.549957 123.754013,273.361450 123.560516,273.059448 
	C122.956406,272.448181 122.545776,272.138885 122.135162,271.829590 
	C122.135162,271.829590 122.101089,271.936249 122.119644,271.538757 
	C121.443764,269.703735 120.749321,268.266174 120.054871,266.828613 
	C120.047371,266.543335 119.955452,266.288483 119.542137,265.738373 
	C119.305161,265.412659 119.098099,264.977722 119.144592,264.620728 
	C118.506210,263.037842 117.821350,261.811951 117.136490,260.586060 
	C117.136490,260.586060 117.241188,260.330505 117.199203,259.884399 
	C116.789581,259.227203 116.421951,259.016083 116.054314,258.804993 
	C116.054314,258.804993 115.992004,258.405426 115.942108,257.945770 
	C115.602386,257.283691 115.312553,257.081268 115.022720,256.878845 
	C115.022720,256.878845 114.963470,256.474152 115.021606,255.910645 
	C114.398392,253.840561 113.717041,252.333969 113.035690,250.827393 
z"/>
<path fill="#761D28" opacity="1.000000" stroke="none" 
	d="
M107.233978,196.918762 
	C107.915787,195.463196 108.527267,194.365906 109.075371,193.382324 
	C109.075371,206.285538 109.075371,219.180618 108.736389,232.220123 
	C107.704308,226.809052 107.011208,221.253571 106.318100,215.698074 
	C105.724243,215.651642 105.130379,215.605225 104.536522,215.558792 
	C104.028374,221.039856 103.520233,226.520920 103.012085,232.001984 
	C103.022247,237.683380 103.032402,243.364792 103.087082,249.871750 
	C104.073288,252.803131 105.014969,254.908951 105.956650,257.014771 
	C107.893280,265.388794 109.838791,273.760803 111.762169,282.137878 
	C112.530510,285.484253 113.250046,288.841797 113.954620,292.602905 
	C104.458611,273.810760 100.474663,253.347778 101.705627,232.164978 
	C102.385262,220.469421 105.271912,208.902130 107.233978,196.918762 
z"/>
<path fill="#7A1220" opacity="1.000000" stroke="none" 
	d="
M257.031799,113.403015 
	C261.083679,114.241066 265.681976,114.680145 269.361237,116.751556 
	C276.612366,120.833870 283.743896,125.342308 290.183533,130.585114 
	C295.409912,134.840134 299.580994,140.400772 304.131165,145.462296 
	C304.583344,145.965302 304.416138,147.025146 304.351807,148.191315 
	C298.162323,142.622620 292.770599,135.837311 286.001831,130.965027 
	C276.947662,124.447639 266.825989,119.413239 257.031799,113.403015 
z"/>
<path fill="#EDCAC8" opacity="1.000000" stroke="none" 
	d="
M238.998047,323.758301 
	C238.825012,323.510071 238.609116,323.307495 238.149841,323.049866 
	C244.526779,320.502594 251.101135,318.047821 257.682343,315.611450 
	C268.970612,311.432495 278.936554,305.059082 288.161652,297.413300 
	C289.204498,296.548950 290.650726,296.171295 292.232605,295.791046 
	C281.345581,306.841309 268.346283,314.726318 253.596680,319.746796 
	C252.677597,320.059601 251.822830,320.561371 250.597076,321.134094 
	C250.256012,321.292938 250.120728,321.306549 249.760132,321.488281 
	C245.932388,322.366150 242.465210,323.062225 238.998047,323.758301 
z"/>
<path fill="#22080A" opacity="1.000000" stroke="none" 
	d="
M201.980560,250.999374 
	C202.426773,252.484177 202.873001,253.968979 203.474365,255.824036 
	C203.629517,256.194305 203.663925,256.137360 203.528702,256.471008 
	C203.605515,257.214050 203.817551,257.623474 204.029587,258.032867 
	C202.747055,262.415039 201.464539,266.797211 200.182022,271.179382 
	C199.781189,271.210754 199.380356,271.242157 198.979523,271.273529 
	C197.659012,266.781586 196.338501,262.289642 194.994583,257.409485 
	C195.556152,255.794678 196.141113,254.568100 197.170715,253.400650 
	C198.113388,254.450836 198.611465,255.441925 199.464737,257.139771 
	C200.556030,254.476212 201.268295,252.737793 201.980560,250.999374 
z"/>
<path fill="#761D28" opacity="1.000000" stroke="none" 
	d="
M113.952484,293.455750 
	C115.213257,294.219330 116.795609,295.140228 117.680466,296.511292 
	C123.431000,305.421722 129.029922,314.430054 134.695587,323.921143 
	C134.433182,324.641876 134.153656,324.847839 133.874130,325.053772 
	C125.542450,315.721466 119.095505,305.186920 113.952484,293.455750 
z"/>
<path fill="#290609" opacity="1.000000" stroke="none" 
	d="
M196.404663,148.333405 
	C196.165909,147.747421 195.927170,147.161453 195.409958,146.085846 
	C195.098602,145.424957 195.065704,145.253662 195.032822,145.082367 
	C196.036987,140.317703 197.041153,135.553040 198.045334,130.788376 
	C198.718124,130.788620 199.390915,130.788864 200.063705,130.789108 
	C200.866867,132.884155 201.670029,134.979218 202.271576,137.606171 
	C201.988297,138.377182 201.906616,138.616272 201.824936,138.855347 
	C202.109222,138.667816 202.393524,138.480286 202.677826,138.292755 
	C202.677826,138.292755 202.881149,138.497650 202.835358,138.634521 
	C202.619614,140.682724 202.449646,142.594055 201.771271,144.517654 
	C200.945770,143.826462 200.628708,143.123032 200.038223,141.813004 
	C198.629700,144.340607 197.517181,146.337006 196.404663,148.333405 
z"/>
<path fill="#0D0F0E" opacity="1.000000" stroke="none" 
	d="
M249.508331,388.236389 
	C248.450134,387.094910 247.802231,385.956390 247.071075,384.495575 
	C252.185089,383.661530 257.382355,383.149811 262.579620,382.638092 
	C262.723877,383.243744 262.868134,383.849365 263.012360,384.455017 
	C258.647797,385.716461 254.283203,386.977905 249.508331,388.236389 
z"/>
<path fill="#3B151A" opacity="1.000000" stroke="none" 
	d="
M146.718597,194.919098 
	C147.153915,195.178619 147.376480,195.497498 147.749847,196.277481 
	C147.258331,197.166199 146.615982,197.593826 145.580185,198.014832 
	C142.276413,198.540314 137.911209,197.203430 138.976288,202.842545 
	C136.320587,202.137070 133.664871,201.431595 131.009171,200.726120 
	C130.955872,200.300858 130.902588,199.875610 130.849304,199.450348 
	C136.068146,197.959702 141.287003,196.469070 146.718597,194.919098 
z"/>
<path fill="#340509" opacity="1.000000" stroke="none" 
	d="
M248.394196,206.843353 
	C245.203491,206.752548 242.382904,206.644363 239.283981,206.030685 
	C239.007431,205.350143 239.009201,205.175079 239.338470,205.007767 
	C240.102234,204.997391 240.538528,204.979248 241.397522,204.977203 
	C247.889847,203.939194 253.959473,202.885086 260.032227,202.113297 
	C260.021027,202.583328 260.006744,202.771011 259.992432,202.958710 
	C256.249725,204.247787 252.507004,205.536865 248.394196,206.843353 
z"/>
<path fill="#702632" opacity="1.000000" stroke="none" 
	d="
M200.582733,105.066010 
	C201.859756,105.757629 202.752396,106.425056 204.015228,107.151520 
	C200.062866,108.072906 195.740280,108.935257 191.417709,109.797615 
	C191.279541,109.150162 191.141388,108.502708 191.003220,107.855255 
	C194.068283,106.917442 197.133331,105.979630 200.582733,105.066010 
z"/>
<path fill="#2A0A09" opacity="1.000000" stroke="none" 
	d="
M153.015594,205.086594 
	C152.720200,205.614120 152.424805,206.141647 152.004303,206.944305 
	C148.009079,206.100235 144.138962,204.981033 140.229446,203.306427 
	C141.762329,202.525162 143.334625,202.299301 145.118027,202.270660 
	C145.877701,202.614059 146.426270,202.760239 147.303574,203.077621 
	C149.426743,203.861420 151.221161,204.474014 153.015594,205.086594 
z"/>
<path fill="#0A0C0B" opacity="1.000000" stroke="none" 
	d="
M135.916321,251.664413 
	C134.498703,252.001663 133.031128,252.001663 131.020172,252.001663 
	C130.629089,249.520432 130.214523,246.890305 130.098175,244.049866 
	C132.219711,246.335434 134.043030,248.831299 135.916321,251.664413 
z"/>
<path fill="#7A1220" opacity="1.000000" stroke="none" 
	d="
M137.914825,329.507751 
	C142.888977,328.568024 145.324753,330.804932 145.071686,336.331116 
	C142.736450,334.413025 140.388351,332.114624 137.914825,329.507751 
z"/>
<path fill="#442329" opacity="1.000000" stroke="none" 
	d="
M260.377869,202.967484 
	C260.006744,202.771011 260.021027,202.583328 260.159790,201.858215 
	C260.509155,200.599060 260.734100,199.877289 261.173889,199.032257 
	C261.671417,198.713104 261.864288,198.451111 261.967346,198.123001 
	C264.071228,198.562714 266.175140,199.002426 268.279022,199.442139 
	C268.234772,199.845261 268.190552,200.248367 268.146301,200.651489 
	C265.685303,201.426422 263.224304,202.201340 260.377869,202.967484 
z"/>
<path fill="#5E1220" opacity="1.000000" stroke="none" 
	d="
M144.906921,202.073425 
	C143.334625,202.299301 141.762329,202.525162 140.018097,203.007111 
	C139.846161,203.263184 139.368408,203.141815 139.172348,202.992188 
	C137.911209,197.203430 142.276413,198.540314 145.583893,198.252762 
	C145.981033,198.497330 145.975754,198.973724 145.729767,199.206970 
	C145.291504,200.317947 145.099213,201.195694 144.906921,202.073425 
z"/>
<path fill="#0A0C0B" opacity="1.000000" stroke="none" 
	d="
M137.769745,275.401245 
	C139.422272,274.923279 141.170242,274.712921 142.918213,274.502594 
	C142.381546,275.880615 141.844894,277.258667 141.109863,278.905548 
	C139.896057,278.005890 138.880615,276.837341 137.769745,275.401245 
z"/>
<path fill="#EDCAC8" opacity="1.000000" stroke="none" 
	d="
M299.737396,288.109619 
	C297.898895,290.487518 295.703369,292.882874 293.236145,295.411743 
	C292.025085,290.410370 296.267395,289.757050 299.737396,288.109619 
z"/>
<path fill="#0F110F" opacity="1.000000" stroke="none" 
	d="
M386.929382,240.374542 
	C387.540771,240.260849 388.022949,240.521744 388.756439,240.892181 
	C388.637024,243.065247 388.266296,245.128754 387.895569,247.192276 
	C387.237274,247.091934 386.578979,246.991608 385.920685,246.891281 
	C386.213837,244.843887 386.506989,242.796509 386.929382,240.374542 
z"/>
<path fill="#0D0F0E" opacity="1.000000" stroke="none" 
	d="
M236.343323,391.244476 
	C238.849930,390.305573 241.679504,389.423920 244.765289,388.800537 
	C242.236404,389.806458 239.451340,390.554077 236.343323,391.244476 
z"/>
<path fill="#0A0C0B" opacity="1.000000" stroke="none" 
	d="
M150.280914,265.531006 
	C147.865952,266.963593 145.734955,267.463989 146.930847,263.121643 
	C148.176147,263.685669 149.157852,264.463593 150.280914,265.531006 
z"/>
<path fill="#040404" opacity="1.000000" stroke="none" 
	d="
M116.474655,218.270386 
	C115.933083,216.805679 115.844109,215.687759 116.205704,214.284088 
	C117.357384,214.002411 118.058502,214.006470 118.759621,214.010529 
	C118.899590,214.747314 119.039558,215.484131 118.890442,216.778351 
	C118.401657,217.889709 118.201981,218.443634 118.002304,218.997559 
	C117.643959,218.870758 117.285614,218.743958 116.474655,218.270386 
z"/>
<path fill="#0A0C0B" opacity="1.000000" stroke="none" 
	d="
M131.915619,267.369568 
	C133.015213,268.264618 134.147156,269.484070 135.029388,270.897614 
	C133.835770,269.959137 132.891861,268.826538 131.915619,267.369568 
z"/>
<path fill="#761D28" opacity="1.000000" stroke="none" 
	d="
M137.012512,325.977081 
	C137.304855,326.822418 137.597198,327.667725 137.828293,328.861572 
	C136.858307,328.360474 135.949585,327.510803 135.300369,326.341675 
	C136.044083,326.007172 136.528305,325.992126 137.012512,325.977081 
z"/>
<path fill="#290609" opacity="1.000000" stroke="none" 
	d="
M253.881378,197.088104 
	C254.744476,196.912552 255.607574,196.737000 256.719055,196.341827 
	C257.956970,196.492889 258.946472,196.863571 259.993835,197.592102 
	C260.051697,197.949936 259.982117,198.027451 259.579407,198.056396 
	C257.411560,197.752914 255.646469,197.420517 253.881378,197.088104 
z"/>
<path fill="#0A0C0B" opacity="1.000000" stroke="none" 
	d="
M124.976929,254.346680 
	C125.613609,255.156433 126.284637,256.309418 126.927948,257.852020 
	C126.270576,257.057739 125.640923,255.873810 124.976929,254.346680 
z"/>
<path fill="#0A0C0B" opacity="1.000000" stroke="none" 
	d="
M143.019897,258.951874 
	C142.414566,259.837646 141.833710,260.574524 140.443604,262.338013 
	C140.746460,260.163971 140.866531,259.302002 141.045532,258.090393 
	C141.751083,258.094818 142.397720,258.448883 143.019897,258.951874 
z"/>
<path fill="#0A0C0B" opacity="1.000000" stroke="none" 
	d="
M118.816551,213.731598 
	C118.058502,214.006470 117.357384,214.002411 116.305420,213.998108 
	C115.872307,213.551483 115.790054,213.105118 116.227173,212.320251 
	C117.292809,211.946075 117.839081,211.910400 118.385345,211.874710 
	C118.548058,212.400696 118.710770,212.926682 118.816551,213.731598 
z"/>
<path fill="#0F110F" opacity="1.000000" stroke="none" 
	d="
M386.121521,221.364136 
	C386.454590,221.944794 386.709259,222.904083 386.677338,223.945953 
	C386.274872,223.266602 386.159027,222.504669 386.121521,221.364136 
z"/>
<path fill="#171714" opacity="1.000000" stroke="none" 
	d="
M194.840179,145.359161 
	C195.065704,145.253662 195.098602,145.424957 195.199066,145.849762 
	C194.677216,146.940247 194.087784,147.777206 193.261658,148.806244 
	C193.565842,147.877533 194.106689,146.756744 194.840179,145.359161 
z"/>
<path fill="#7A1220" opacity="1.000000" stroke="none" 
	d="
M136.952072,325.669098 
	C136.528305,325.992126 136.044083,326.007172 135.196960,326.039185 
	C134.491013,325.991608 134.233994,325.807220 133.968552,325.278351 
	C134.153656,324.847839 134.433182,324.641876 134.857315,324.216522 
	C135.631821,324.451782 136.261719,324.906433 136.952072,325.669098 
z"/>
<path fill="#0D0F0E" opacity="1.000000" stroke="none" 
	d="
M232.365662,391.945679 
	C232.990097,391.586639 233.989166,391.293549 235.299683,391.155243 
	C234.654190,391.543915 233.697220,391.777802 232.365662,391.945679 
z"/>
<path fill="#0D0F0E" opacity="1.000000" stroke="none" 
	d="
M237.701843,384.544373 
	C237.394165,384.832947 236.750488,384.973633 236.033295,384.903198 
	C236.428467,384.593506 236.897156,384.494965 237.701843,384.544373 
z"/>
<path fill="#0A0C0B" opacity="1.000000" stroke="none" 
	d="
M115.990952,205.489410 
	C116.559219,204.874207 117.131874,204.748581 117.704521,204.622955 
	C117.620132,205.357666 117.535744,206.092377 117.451355,206.827087 
	C116.966019,206.544388 116.480675,206.261673 115.990952,205.489410 
z"/>
<path fill="#040404" opacity="1.000000" stroke="none" 
	d="
M118.380325,211.349121 
	C117.839081,211.910400 117.292809,211.946075 116.336098,211.992905 
	C116.165459,210.985764 116.405266,209.967484 116.645081,208.949188 
	C117.221817,209.573959 117.798553,210.198730 118.380325,211.349121 
z"/>
<path fill="#0A0C0B" opacity="1.000000" stroke="none" 
	d="
M118.294739,219.001312 
	C118.201981,218.443634 118.401657,217.889709 118.839600,217.153015 
	C119.321991,217.462982 119.566116,217.955704 119.783630,218.729828 
	C119.367065,219.009171 118.977119,219.007126 118.294739,219.001312 
z"/>
<path fill="#0D0F0E" opacity="1.000000" stroke="none" 
	d="
M231.715851,384.518555 
	C231.379135,384.757507 230.721664,384.829926 230.017090,384.669678 
	C230.445023,384.408722 230.920074,384.380341 231.715851,384.518555 
z"/>
<path fill="#0F110F" opacity="1.000000" stroke="none" 
	d="
M386.698212,229.126328 
	C387.027069,229.520874 387.212097,230.091949 387.192413,230.833649 
	C386.843262,230.437119 386.698822,229.869995 386.698212,229.126328 
z"/>
<path fill="#0A0C0B" opacity="1.000000" stroke="none" 
	d="
M124.020767,231.692871 
	C123.582565,231.431778 123.121834,230.879562 122.872528,230.147308 
	C123.388710,230.445419 123.693466,230.923584 124.020767,231.692871 
z"/>
<path fill="#0A0C0B" opacity="1.000000" stroke="none" 
	d="
M125.983582,235.713348 
	C125.529480,235.450592 125.082756,234.892990 124.843323,234.157898 
	C125.364059,234.459793 125.677513,234.939148 125.983582,235.713348 
z"/>
<path fill="#0A0C0B" opacity="1.000000" stroke="none" 
	d="
M145.403259,261.584503 
	C144.817230,261.379913 144.139389,260.938965 143.502365,260.059753 
	C144.132614,260.197052 144.722031,260.772583 145.403259,261.584503 
z"/>
<path fill="#0B0907" opacity="1.000000" stroke="none" 
	d="
M202.723587,138.215607 
	C202.393524,138.480286 202.109222,138.667816 201.824936,138.855347 
	C201.906616,138.616272 201.988297,138.377182 202.326187,137.998962 
	C202.582397,137.859833 202.769348,138.138458 202.723587,138.215607 
z"/>
<path fill="#290609" opacity="1.000000" stroke="none" 
	d="
M261.663391,198.058197 
	C261.864288,198.451111 261.671417,198.713104 260.961090,198.888031 
	C260.349670,198.587219 260.165894,198.307327 259.982117,198.027451 
	C259.982117,198.027451 260.051697,197.949936 260.086975,197.911621 
	C260.534637,197.913330 260.947052,197.953369 261.663391,198.058197 
z"/>
<path fill="#0F110F" opacity="1.000000" stroke="none" 
	d="
M391.653809,224.482742 
	C391.217102,224.478928 390.742737,224.449219 390.268341,224.419495 
	C390.552948,224.371155 390.837585,224.322800 391.407227,224.340332 
	C391.692291,224.406204 391.616089,224.456848 391.653809,224.482742 
z"/>
<path fill="#0A0706" opacity="1.000000" stroke="none" 
	d="
M204.223663,257.679779 
	C203.817551,257.623474 203.605515,257.214050 203.561646,256.475769 
	C203.959106,256.540131 204.188431,256.933411 204.223663,257.679779 
z"/>
<path fill="#0D0F0E" opacity="1.000000" stroke="none" 
	d="
M244.208313,386.423828 
	C244.157089,386.587494 244.040436,386.641693 243.923798,386.695892 
	C243.996826,386.568695 244.069855,386.441528 244.208313,386.423828 
z"/>
<path fill="#7A0718" opacity="1.000000" stroke="none" 
	d="
M129.070908,282.253723 
	C131.020584,283.992157 132.948669,286.105804 135.123825,288.440125 
	C143.868088,298.912781 154.151169,306.962860 165.973190,313.646301 
	C160.461365,314.094208 156.081436,311.336395 152.043533,307.695465 
	C144.751892,301.120697 135.987579,296.045410 131.064117,287.074036 
	C130.283737,285.652008 129.715591,284.113525 129.070908,282.253723 
z"/>
<path fill="#7A0718" opacity="1.000000" stroke="none" 
	d="
M183.095596,321.281189 
	C194.649994,325.040649 206.808456,325.896454 218.912033,326.843597 
	C222.921051,327.157288 227.018341,326.343231 231.530396,326.104736 
	C228.199020,327.108704 224.345093,329.051392 220.639206,328.801239 
	C211.198547,328.164001 201.798828,326.707367 192.436783,325.234863 
	C189.189697,324.724152 184.741653,326.650391 183.095596,321.281189 
z"/>
<path fill="#810619" opacity="1.000000" stroke="none" 
	d="
M103.266968,231.804016 
	C103.520233,226.520920 104.028374,221.039856 104.536522,215.558792 
	C105.130379,215.605225 105.724243,215.651642 106.318100,215.698074 
	C107.011208,221.253571 107.704308,226.809052 108.619492,232.676483 
	C108.888626,233.411880 108.935677,233.835373 109.005890,234.970642 
	C109.389191,237.114273 109.749329,238.546112 110.109459,239.977966 
	C110.109459,239.977966 110.036064,239.980698 110.033134,240.319702 
	C110.416664,241.753967 110.803116,242.849243 111.189575,243.944504 
	C111.189575,243.944504 111.098564,243.937668 111.079865,244.251740 
	C111.042931,245.044205 111.024696,245.522598 111.006470,246.000992 
	C103.934059,244.152039 108.054680,237.711395 106.016014,233.791107 
	C105.447693,232.698227 107.156181,229.167725 103.266968,231.804016 
z"/>
<path fill="#7A1220" opacity="1.000000" stroke="none" 
	d="
M238.628815,323.797119 
	C242.465210,323.062225 245.932388,322.366150 249.736847,321.552185 
	C249.731903,322.670074 249.534912,324.912323 249.024994,324.985931 
	C243.919418,325.722595 238.762375,326.102570 233.322052,326.347717 
	C234.769363,325.353577 236.514465,324.594757 238.628815,323.797119 
z"/>
<path fill="#810619" opacity="1.000000" stroke="none" 
	d="
M106.256790,256.845703 
	C105.014969,254.908951 104.073288,252.803131 103.102768,250.338135 
	C107.455177,250.671814 108.282768,252.263245 106.256790,256.845703 
z"/>
<path fill="#7A0718" opacity="1.000000" stroke="none" 
	d="
M123.586578,273.918640 
	C125.541916,276.100586 127.304489,278.651215 129.100159,281.557678 
	C124.656464,281.300812 123.327164,278.319336 123.586578,273.918640 
z"/>
<path fill="#7A0718" opacity="1.000000" stroke="none" 
	d="
M169.038635,315.480469 
	C170.581390,315.843658 172.186295,316.536163 173.955109,317.521912 
	C172.446274,317.146667 170.773514,316.478210 169.038635,315.480469 
z"/>
<path fill="#7A0718" opacity="1.000000" stroke="none" 
	d="
M120.037827,267.237823 
	C120.749321,268.266174 121.443764,269.703735 122.164795,271.505676 
	C121.467850,270.462372 120.744308,269.054688 120.037827,267.237823 
z"/>
<path fill="#761D28" opacity="1.000000" stroke="none" 
	d="
M117.008453,260.898407 
	C117.821350,261.811951 118.506210,263.037842 118.867134,264.625763 
	C118.358208,264.990082 118.173218,264.992401 117.988220,264.994690 
	C117.618958,263.733368 117.249687,262.472076 117.008453,260.898407 
z"/>
<path fill="#761D28" opacity="1.000000" stroke="none" 
	d="
M113.023605,251.226379 
	C113.717041,252.333969 114.398392,253.840561 114.978966,255.710648 
	C114.255974,254.591232 113.633751,253.108292 113.023605,251.226379 
z"/>
<path fill="#7A0718" opacity="1.000000" stroke="none" 
	d="
M178.089417,319.511047 
	C179.577942,319.528534 181.185028,319.891479 182.938538,320.595581 
	C181.459290,320.576660 179.833649,320.216583 178.089417,319.511047 
z"/>
<path fill="#761D28" opacity="1.000000" stroke="none" 
	d="
M111.143021,246.209442 
	C111.024696,245.522598 111.042931,245.044205 111.092316,244.207840 
	C111.444252,244.646774 111.765038,245.443695 112.090775,246.605759 
	C111.766739,246.870590 111.494690,246.686249 111.143021,246.209442 
z"/>
<path fill="#761D28" opacity="1.000000" stroke="none" 
	d="
M112.039665,247.257141 
	C112.422005,247.729218 112.790810,248.539154 113.030792,249.695251 
	C112.610016,249.225952 112.318069,248.410492 112.039665,247.257141 
z"/>
<path fill="#7A0718" opacity="1.000000" stroke="none" 
	d="
M122.153030,272.154480 
	C122.545776,272.138885 122.956406,272.448181 123.487343,272.998718 
	C123.128746,272.986481 122.649826,272.732941 122.153030,272.154480 
z"/>
<path fill="#7A0718" opacity="1.000000" stroke="none" 
	d="
M176.142242,318.342896 
	C176.306244,318.254547 176.620178,318.349304 177.027100,318.706024 
	C176.806213,318.891632 176.530243,318.744324 176.142242,318.342896 
z"/>
<path fill="#7A0718" opacity="1.000000" stroke="none" 
	d="
M167.124405,314.273193 
	C167.289627,314.187073 167.605286,314.299469 168.025238,314.688721 
	C167.800507,314.877289 167.515625,314.712708 167.124405,314.273193 
z"/>
<path fill="#7A0718" opacity="1.000000" stroke="none" 
	d="
M118.175056,265.213806 
	C118.173218,264.992401 118.358208,264.990082 118.820648,264.982758 
	C119.098099,264.977722 119.305161,265.412659 119.356979,265.648193 
	C119.059830,265.733429 118.710861,265.583160 118.175056,265.213806 
z"/>
<path fill="#761D28" opacity="1.000000" stroke="none" 
	d="
M116.163483,259.067108 
	C116.421951,259.016083 116.789581,259.227203 117.131699,259.763947 
	C116.828346,259.836151 116.550507,259.582672 116.163483,259.067108 
z"/>
<path fill="#761D28" opacity="1.000000" stroke="none" 
	d="
M115.101929,257.106934 
	C115.312553,257.081268 115.602386,257.283691 115.867294,257.757935 
	C115.567085,257.850403 115.346672,257.618835 115.101929,257.106934 
z"/>
<path fill="#0A0C0B" opacity="1.000000" stroke="none" 
	d="
M138.271011,259.496979 
	C138.114380,260.221954 137.746216,260.759674 137.378052,261.297394 
	C137.067795,260.979279 136.757523,260.661163 136.447250,260.343048 
	C136.984650,259.998596 137.522064,259.654144 138.271011,259.496979 
z"/>
<path fill="#71091A" opacity="1.000000" stroke="none" 
	d="
M259.579407,198.056396 
	C260.165894,198.307327 260.349670,198.587219 260.746246,199.011322 
	C260.734100,199.877289 260.509155,200.599060 260.156647,201.575897 
	C253.959473,202.885086 247.889847,203.939194 241.468597,204.611877 
	C244.272522,202.834183 247.428101,201.437927 250.819901,199.937164 
	C238.813095,195.883224 226.287064,196.057907 213.150391,196.090240 
	C213.948242,198.214203 214.442444,199.529861 214.980957,200.963409 
	C213.063553,202.344406 211.283585,203.516602 209.631577,204.847595 
	C208.019104,206.146713 206.537323,207.608063 204.642792,208.998352 
	C203.577026,209.021957 202.866669,209.045380 202.105286,208.690460 
	C203.023773,206.835251 203.993256,205.358398 205.315887,203.872009 
	C207.647369,202.898712 209.625702,201.934952 212.971878,200.304825 
	C209.379730,198.904770 207.161865,198.040344 204.599976,197.061478 
	C203.432663,195.304306 202.609406,193.661591 201.746063,191.793030 
	C201.572250,191.272888 201.355972,191.064011 201.070694,190.939148 
	C201.084259,190.937744 201.086838,190.910522 201.092651,190.532349 
	C200.843155,188.894241 200.587830,187.634323 200.332504,186.374390 
	C199.808777,186.353210 199.285049,186.332031 198.761322,186.310837 
	C197.861023,189.549088 196.960724,192.787338 195.788666,196.160431 
	C194.676086,196.857513 193.835266,197.419754 192.621033,197.985947 
	C190.797729,198.654831 189.347809,199.319778 187.897888,199.984726 
	C187.915894,200.413925 187.933884,200.843140 187.951874,201.272339 
	C189.328064,201.777832 190.704254,202.283325 192.299850,202.851349 
	C192.519257,202.913864 192.960953,203.028381 193.130127,203.332657 
	C195.377899,207.033676 197.456512,210.430435 199.720016,214.129333 
	C200.533112,212.990723 201.246307,211.991974 202.234207,211.197662 
	C203.461792,212.024628 204.414688,212.647125 205.367584,213.269608 
	C205.235580,215.883301 205.103577,218.496994 204.738037,221.559387 
	C204.504486,222.008102 204.018555,222.013016 203.773438,221.770309 
	C203.205872,220.295868 202.883423,219.064133 202.479813,217.522415 
	C199.961227,218.022552 197.461273,218.518997 194.712143,219.013687 
	C194.462952,219.011948 193.964584,219.014008 193.964584,219.014008 
	C193.947174,218.573578 193.929764,218.133148 193.867432,217.003067 
	C192.532364,214.245605 191.242218,212.177811 189.952072,210.110016 
	C185.841934,209.259750 181.731796,208.409485 177.407883,206.932663 
	C180.003937,205.577133 182.813751,204.848160 185.140442,204.244553 
	C185.792175,200.305115 186.379135,196.757217 186.966095,193.209305 
	C188.946228,191.033508 190.926346,188.857712 193.187897,186.147400 
	C193.569382,185.047760 193.669418,184.482605 193.769470,183.917465 
	C193.817001,183.489670 193.864548,183.061859 194.193909,182.013550 
	C194.915955,175.567307 195.356201,169.741592 195.796448,163.915863 
	C195.816269,163.501129 195.836075,163.086395 196.039917,162.017899 
	C196.379318,159.545334 196.534729,157.726547 196.690125,155.907745 
	C196.563705,153.629745 196.437286,151.351761 196.357758,148.703583 
	C197.517181,146.337006 198.629700,144.340607 200.038223,141.813004 
	C200.628708,143.123032 200.945770,143.826462 201.448822,144.759674 
	C201.696289,146.052643 201.757767,147.115829 201.650833,148.800476 
	C201.659714,150.279678 201.836990,151.137466 202.014267,151.995239 
	C202.033600,152.735687 202.052933,153.476120 202.066254,155.022583 
	C202.728180,160.214142 203.396118,164.599686 204.064056,168.985245 
	C204.100372,170.684540 204.136673,172.383850 204.165405,174.798553 
	C204.425262,176.014130 204.692688,176.514282 204.960114,177.014450 
	C205.272812,179.736771 205.585510,182.459091 205.991165,185.914978 
	C207.019791,187.484573 207.955444,188.320587 208.891113,189.156601 
	C210.346008,190.431610 211.800888,191.706619 213.942841,193.240540 
	C218.113434,193.545166 221.596939,193.590897 225.080444,193.636612 
	C226.771896,193.745087 228.463333,193.853546 230.850098,194.215698 
	C233.048889,194.583557 234.552353,194.697723 236.055817,194.811890 
	C236.487106,194.861450 236.918396,194.911026 237.875092,195.190186 
	C238.967621,195.456116 239.534729,195.492477 240.101852,195.528839 
	C241.783813,195.681320 243.465790,195.833801 245.828278,196.230042 
	C247.678055,196.601898 248.847321,196.729996 250.016586,196.858093 
	C251.148361,196.851807 252.280136,196.845520 253.646637,196.963669 
	C255.646469,197.420517 257.411560,197.752914 259.579407,198.056396 
z"/>
<path fill="#290609" opacity="1.000000" stroke="none" 
	d="
M204.311798,168.682785 
	C203.396118,164.599686 202.728180,160.214142 202.105927,155.390869 
	C202.954254,159.428894 203.756882,163.904602 204.311798,168.682785 
z"/>
<path fill="#290609" opacity="1.000000" stroke="none" 
	d="
M224.911209,193.310913 
	C221.596939,193.590897 218.113434,193.545166 214.312531,193.244415 
	C217.577423,192.987976 221.159698,192.986588 224.911209,193.310913 
z"/>
<path fill="#290609" opacity="1.000000" stroke="none" 
	d="
M235.944550,194.494171 
	C234.552353,194.697723 233.048889,194.583557 231.275101,194.209763 
	C232.614273,194.025558 234.223785,194.100998 235.944550,194.494171 
z"/>
<path fill="#290609" opacity="1.000000" stroke="none" 
	d="
M208.888382,188.807098 
	C207.955444,188.320587 207.019791,187.484573 206.063110,186.312408 
	C206.989944,186.803375 207.937805,187.630493 208.888382,188.807098 
z"/>
<path fill="#290609" opacity="1.000000" stroke="none" 
	d="
M249.848694,196.593781 
	C248.847321,196.729996 247.678055,196.601898 246.252914,196.227631 
	C247.224960,196.097473 248.452866,196.213486 249.848694,196.593781 
z"/>
<path fill="#290609" opacity="1.000000" stroke="none" 
	d="
M202.240204,151.788574 
	C201.836990,151.137466 201.659714,150.279678 201.668243,149.198669 
	C202.058075,149.844238 202.262100,150.713074 202.240204,151.788574 
z"/>
<path fill="#290609" opacity="1.000000" stroke="none" 
	d="
M240.010834,195.305115 
	C239.534729,195.492477 238.967621,195.456116 238.200714,195.197876 
	C238.640549,195.011124 239.280182,195.046265 240.010834,195.305115 
z"/>
<path fill="#290609" opacity="1.000000" stroke="none" 
	d="
M205.160492,176.845795 
	C204.692688,176.514282 204.425262,176.014130 204.213593,175.220154 
	C204.633194,175.509949 204.997025,176.093536 205.160492,176.845795 
z"/>
<path fill="#860215" opacity="1.000000" stroke="none" 
	d="
M186.527283,193.169952 
	C186.379135,196.757217 185.792175,200.305115 185.140442,204.244553 
	C182.813751,204.848160 180.003937,205.577133 177.085419,206.687622 
	C176.535233,207.081329 176.093750,207.093506 175.290344,206.790955 
	C174.284225,206.318192 173.639999,206.160156 172.642090,205.998947 
	C171.205963,206.269623 170.123535,206.543457 169.041107,206.817307 
	C167.668701,206.798386 166.296295,206.779480 164.400452,206.438156 
	C162.920395,205.740311 161.963760,205.364883 160.811737,204.828003 
	C159.771286,204.766922 158.926208,204.867294 157.687943,204.968903 
	C156.510117,205.018677 155.725494,205.067230 154.940872,205.115768 
	C154.940872,205.115768 154.996994,205.022217 154.919769,204.632416 
	C152.219986,203.797226 149.597412,203.351822 146.974838,202.906433 
	C146.426270,202.760239 145.877701,202.614059 145.118027,202.270660 
	C145.099213,201.195694 145.291504,200.317947 146.130096,199.216583 
	C148.686035,197.758209 152.135712,201.612167 153.369766,197.059937 
	C154.114395,197.014709 154.540833,197.003387 155.267822,197.254395 
	C162.925491,196.948257 170.287277,196.428207 177.630096,195.713181 
	C178.178650,195.659775 178.591278,194.210556 179.067093,193.410217 
	C181.407547,193.317017 183.748001,193.223816 186.527283,193.169952 
z"/>
<path fill="#71091A" opacity="1.000000" stroke="none" 
	d="
M178.746490,193.295197 
	C178.591278,194.210556 178.178650,195.659775 177.630096,195.713181 
	C170.287277,196.428207 162.925491,196.948257 155.296738,196.980438 
	C155.097916,196.087601 155.170776,195.731110 155.243637,195.374603 
	C156.564499,195.297180 157.885345,195.219757 159.824066,195.337494 
	C161.358261,195.123688 162.274582,194.714737 163.190903,194.305786 
	C165.528442,194.164444 167.865982,194.023117 170.856018,193.901123 
	C171.702454,193.893250 171.896423,193.866028 172.090393,193.838806 
	C173.099380,193.822311 174.108368,193.805817 175.735931,193.754333 
	C176.666641,193.595413 176.905380,193.387268 177.070679,193.094910 
	C177.522415,193.123322 177.974167,193.151749 178.746490,193.295197 
z"/>
<path fill="#290609" opacity="1.000000" stroke="none" 
	d="
M195.436188,163.962967 
	C195.356201,169.741592 194.915955,175.567307 194.200531,181.690735 
	C193.758575,176.303085 193.566315,170.618042 193.496475,164.931473 
	C193.492783,164.630859 194.525620,164.317505 195.436188,163.962967 
z"/>
<path fill="#290609" opacity="1.000000" stroke="none" 
	d="
M196.389771,156.033356 
	C196.534729,157.726547 196.379318,159.545334 196.021057,161.706879 
	C192.159103,159.913452 195.339981,158.092163 196.389771,156.033356 
z"/>
<path fill="#71091A" opacity="1.000000" stroke="none" 
	d="
M153.051559,197.093811 
	C152.135712,201.612167 148.686035,197.758209 146.376099,198.983337 
	C145.975754,198.973724 145.981033,198.497330 145.977325,198.259399 
	C146.615982,197.593826 147.258331,197.166199 147.989090,196.447510 
	C148.077515,196.156418 148.492325,196.148987 148.852570,196.338928 
	C149.454559,196.750748 149.739471,196.866623 150.067520,196.876465 
	C150.461075,196.843567 150.854614,196.810669 151.842316,196.856506 
	C152.641479,196.988098 152.846512,197.040955 153.051559,197.093811 
z"/>
<path fill="#3F030A" opacity="1.000000" stroke="none" 
	d="
M162.838089,194.220978 
	C162.274582,194.714737 161.358261,195.123688 160.222229,195.332413 
	C160.830124,194.800171 161.657700,194.468170 162.838089,194.220978 
z"/>
<path fill="#3F030A" opacity="1.000000" stroke="none" 
	d="
M153.369766,197.059937 
	C152.846512,197.040955 152.641479,196.988098 152.136826,196.824554 
	C152.739105,196.202148 153.641037,195.690445 154.893295,195.276672 
	C155.170776,195.731110 155.097916,196.087601 154.996155,196.718079 
	C154.540833,197.003387 154.114395,197.014709 153.369766,197.059937 
z"/>
<path fill="#290609" opacity="1.000000" stroke="none" 
	d="
M193.517456,183.988464 
	C193.669418,184.482605 193.569382,185.047760 193.249527,185.811798 
	C193.108292,185.360275 193.186859,184.709869 193.517456,183.988464 
z"/>
<path fill="#3F030A" opacity="1.000000" stroke="none" 
	d="
M149.915283,196.698486 
	C149.739471,196.866623 149.454559,196.750748 149.059570,196.352112 
	C149.231842,196.191376 149.517395,196.306412 149.915283,196.698486 
z"/>
<path fill="#3F030A" opacity="1.000000" stroke="none" 
	d="
M176.839935,193.146759 
	C176.905380,193.387268 176.666641,193.595413 176.114380,193.747986 
	C176.066803,193.517303 176.311768,193.324631 176.839935,193.146759 
z"/>
<path fill="#3F030A" opacity="1.000000" stroke="none" 
	d="
M171.962326,193.713135 
	C171.896423,193.866028 171.702454,193.893250 171.215210,193.896454 
	C171.226028,193.777466 171.530151,193.682449 171.962326,193.713135 
z"/>
<path fill="#71091A" opacity="1.000000" stroke="none" 
	d="
M201.973816,250.627228 
	C201.268295,252.737793 200.556030,254.476212 199.464737,257.139771 
	C198.611465,255.441925 198.113388,254.450836 197.415100,253.226685 
	C197.190201,252.555847 197.165497,252.118088 197.290833,251.175690 
	C197.292465,250.114059 197.144058,249.557114 196.995667,249.000153 
	C196.616989,244.637863 196.238312,240.275589 195.879257,235.052551 
	C195.518341,231.114273 195.137787,228.036758 194.757233,224.959244 
	C194.807739,224.793198 194.858215,224.627167 195.355896,224.324310 
	C196.531479,226.945190 197.543961,229.664459 197.923767,232.469406 
	C198.541214,237.029129 198.744614,241.644928 199.122772,246.237076 
	C199.750885,246.213806 200.378998,246.190552 201.007111,246.167282 
	C201.007111,241.860260 200.636749,237.510330 201.129227,233.260376 
	C201.495453,230.099823 202.979797,227.068832 203.994675,224.428497 
	C203.401611,232.595413 202.779999,240.313950 202.158386,248.032486 
	C202.094620,248.773346 202.030853,249.514206 201.973816,250.627228 
z"/>
<path fill="#860313" opacity="1.000000" stroke="none" 
	d="
M203.966125,223.980118 
	C202.979797,227.068832 201.495453,230.099823 201.129227,233.260376 
	C200.636749,237.510330 201.007111,241.860260 201.007111,246.167282 
	C200.378998,246.190552 199.750885,246.213806 199.122772,246.237076 
	C198.744614,241.644928 198.541214,237.029129 197.923767,232.469406 
	C197.543961,229.664459 196.531479,226.945190 195.452942,224.082764 
	C195.007507,223.244598 194.912216,222.511108 194.839478,221.083984 
	C194.895142,219.932053 194.928238,219.473740 194.961334,219.015442 
	C197.461273,218.518997 199.961227,218.022552 202.479813,217.522415 
	C202.883423,219.064133 203.205872,220.295868 203.783203,222.098450 
	C204.014114,223.106232 203.990112,223.543167 203.966125,223.980118 
z"/>
<path fill="#22080A" opacity="1.000000" stroke="none" 
	d="
M194.425293,225.092880 
	C195.137787,228.036758 195.518341,231.114273 195.820953,234.617432 
	C193.191849,232.107208 191.941055,228.952805 194.425293,225.092880 
z"/>
<path fill="#22080A" opacity="1.000000" stroke="none" 
	d="
M189.965698,210.480743 
	C191.242218,212.177811 192.532364,214.245605 193.813950,216.676605 
	C192.530045,214.977005 191.254684,212.914246 189.965698,210.480743 
z"/>
<path fill="#5C0A15" opacity="1.000000" stroke="none" 
	d="
M147.303574,203.077637 
	C149.597412,203.351822 152.219986,203.797226 154.943420,204.583252 
	C154.594131,204.970779 154.143951,205.017670 153.354691,205.075592 
	C151.221161,204.474014 149.426743,203.861420 147.303574,203.077637 
z"/>
<path fill="#5C0A15" opacity="1.000000" stroke="none" 
	d="
M169.230499,207.086166 
	C170.123535,206.543457 171.205963,206.269623 172.651886,206.291962 
	C173.024399,206.783432 173.033432,206.978683 173.042450,207.173935 
	C171.834930,207.234299 170.627426,207.294662 169.230499,207.086166 
z"/>
<path fill="#5C0A15" opacity="1.000000" stroke="none" 
	d="
M161.007141,204.989456 
	C161.963760,205.364883 162.920395,205.740311 163.988983,206.413773 
	C163.342468,206.809723 162.584000,206.907669 161.422150,206.750366 
	C161.018784,206.495148 160.994110,206.031204 160.997665,205.770767 
	C161.003189,205.336700 161.005173,205.163086 161.007141,204.989456 
z"/>
<path fill="#2A0A09" opacity="1.000000" stroke="none" 
	d="
M155.023163,205.415833 
	C155.725494,205.067230 156.510117,205.018677 157.669937,205.206848 
	C158.045135,205.443542 158.026382,205.919540 158.026382,205.919540 
	C157.052734,205.851654 156.079086,205.783768 155.023163,205.415833 
z"/>
<path fill="#71091A" opacity="1.000000" stroke="none" 
	d="
M158.353241,205.941391 
	C158.026382,205.919540 158.045135,205.443542 158.063141,205.205612 
	C158.926208,204.867294 159.771286,204.766922 160.811737,204.828003 
	C161.005173,205.163086 161.003189,205.336700 160.744476,205.765274 
	C160.320282,206.041855 160.152802,206.063492 159.985336,206.085129 
	C159.550262,206.044510 159.115173,206.003876 158.353241,205.941391 
z"/>
<path fill="#71091A" opacity="1.000000" stroke="none" 
	d="
M173.368317,207.165237 
	C173.033432,206.978683 173.024399,206.783432 173.005585,206.295135 
	C173.639999,206.160156 174.284225,206.318192 174.960358,206.757736 
	C174.559570,207.078354 174.126877,207.117447 173.368317,207.165237 
z"/>
<path fill="#22080A" opacity="1.000000" stroke="none" 
	d="
M194.712143,219.013702 
	C194.928238,219.473740 194.895142,219.932053 194.763489,220.722107 
	C194.305725,220.486008 193.946487,219.918167 193.775925,219.182159 
	C193.964584,219.014008 194.462952,219.011948 194.712143,219.013702 
z"/>
<path fill="#22080A" opacity="1.000000" stroke="none" 
	d="
M196.792755,249.163361 
	C197.144058,249.557114 197.292465,250.114059 197.268204,250.847839 
	C196.926987,250.458618 196.758423,249.892593 196.792755,249.163361 
z"/>
<path fill="#2A0A09" opacity="1.000000" stroke="none" 
	d="
M160.125031,206.274612 
	C160.152802,206.063492 160.320282,206.041855 160.740936,206.025711 
	C160.994110,206.031204 161.018784,206.495148 161.038834,206.726334 
	C160.749557,206.864838 160.484848,206.700363 160.125031,206.274612 
z"/>
<path fill="#22080A" opacity="1.000000" stroke="none" 
	d="
M203.994659,224.428497 
	C203.990112,223.543167 204.014114,223.106232 204.028320,222.341156 
	C204.018555,222.013016 204.504486,222.008102 204.747269,222.000458 
	C205.033173,225.485291 205.373398,229.005615 205.049438,232.463699 
	C204.569794,237.583969 203.618820,242.660080 202.513443,247.893738 
	C202.779999,240.313950 203.401611,232.595413 203.994659,224.428497 
z"/>
<path fill="#71091A" opacity="1.000000" stroke="none" 
	d="
M239.010986,205.000000 
	C239.009201,205.175079 239.007431,205.350143 239.000443,205.788132 
	C237.318954,206.103638 235.642654,206.156189 233.124176,206.180969 
	C227.511490,206.410904 222.741028,206.668610 218.101257,206.556732 
	C223.450882,205.465057 228.656982,204.612152 233.896271,204.097305 
	C235.555588,203.934250 237.303574,204.673615 239.010986,205.000000 
z"/>
<path fill="#340509" opacity="1.000000" stroke="none" 
	d="
M217.970551,206.926315 
	C222.741028,206.668610 227.511490,206.410904 232.708267,206.228409 
	C230.450516,207.193375 227.819962,208.519302 225.068161,208.856873 
	C221.983521,209.235275 218.789185,208.719452 215.321655,208.071381 
	C215.004425,207.370987 215.008087,207.191940 215.381927,207.015259 
	C216.491592,206.987183 217.231079,206.956741 217.970551,206.926315 
z"/>
<path fill="#340509" opacity="1.000000" stroke="none" 
	d="
M212.008148,208.395874 
	C210.291000,209.913712 208.573868,211.431534 206.466675,212.679871 
	C206.072342,211.949631 206.068069,211.488892 206.290405,210.858551 
	C206.761063,210.184982 207.005112,209.681015 207.601929,209.138596 
	C209.316330,208.673370 210.677963,208.246613 212.029297,207.963715 
	C212.018997,208.107605 212.008133,208.395874 212.008148,208.395874 
z"/>
<path fill="#860116" opacity="1.000000" stroke="none" 
	d="
M206.063797,211.028168 
	C206.068069,211.488892 206.072342,211.949631 206.141464,212.751190 
	C206.206299,213.092026 205.785065,213.182053 205.576324,213.225830 
	C204.414688,212.647125 203.461792,212.024628 202.230331,210.850586 
	C201.907578,209.838531 201.863388,209.378036 201.904510,208.953064 
	C201.989807,208.988586 202.156311,209.068802 202.156311,209.068802 
	C202.866669,209.045380 203.577026,209.021957 204.643692,208.999268 
	C205.000000,209.000000 205.001831,209.001831 205.037170,209.299988 
	C205.402939,210.074829 205.733368,210.551498 206.063797,211.028168 
z"/>
<path fill="#71091A" opacity="1.000000" stroke="none" 
	d="
M215.011749,207.012909 
	C215.008087,207.191940 215.004425,207.370987 214.994354,207.819275 
	C214.237183,208.120895 213.486420,208.153275 212.371887,208.290771 
	C212.008133,208.395874 212.018997,208.107605 212.084915,207.671906 
	C213.104477,207.161789 214.058105,207.087341 215.011749,207.012909 
z"/>
<path fill="#761D28" opacity="1.000000" stroke="none" 
	d="
M110.110420,239.578247 
	C109.749329,238.546112 109.389191,237.114273 109.041382,235.288757 
	C109.406265,236.322906 109.758820,237.750732 110.110420,239.578247 
z"/>
<path fill="#761D28" opacity="1.000000" stroke="none" 
	d="
M111.148026,243.573471 
	C110.803116,242.849243 110.416664,241.753967 110.045006,240.284958 
	C110.408699,241.008286 110.757584,242.105362 111.148026,243.573471 
z"/>
<path fill="#860116" opacity="1.000000" stroke="none" 
	d="
M215.381927,207.015259 
	C214.058105,207.087341 213.104477,207.161789 212.095215,207.528030 
	C210.677963,208.246613 209.316330,208.673370 207.226990,209.083588 
	C206.000137,209.045319 205.500977,209.023575 205.001831,209.001831 
	C205.001831,209.001831 205.000000,209.000000 204.999084,208.999084 
	C206.537323,207.608063 208.019104,206.146713 209.631577,204.847595 
	C211.283585,203.516602 213.063553,202.344406 214.980957,200.963409 
	C214.442444,199.529861 213.948242,198.214203 213.150391,196.090240 
	C226.287064,196.057907 238.813095,195.883224 250.819901,199.937164 
	C247.428101,201.437927 244.272522,202.834183 241.045883,204.595764 
	C240.538528,204.979248 240.102234,204.997391 239.338470,205.007767 
	C237.303574,204.673615 235.555588,203.934250 233.896271,204.097305 
	C228.656982,204.612152 223.450882,205.465057 218.101257,206.556732 
	C217.231079,206.956741 216.491592,206.987183 215.381927,207.015259 
z"/>
<path fill="#060202" opacity="1.000000" stroke="none" 
	d="
M192.960953,203.028381 
	C192.960953,203.028381 192.519257,202.913864 192.293335,202.505951 
	C192.376434,200.726028 192.685440,199.354019 192.994446,197.982025 
	C193.835266,197.419754 194.676086,196.857513 196.117126,196.079102 
	C198.173843,194.212128 199.630341,192.561325 201.086853,190.910522 
	C201.086838,190.910522 201.084259,190.937744 201.137375,191.153122 
	C201.327942,191.641266 201.526489,191.858063 201.786133,192.018875 
	C202.609406,193.661591 203.432663,195.304306 204.667847,197.399292 
	C205.040771,199.861526 205.001770,201.871536 204.962753,203.881531 
	C203.993256,205.358398 203.023773,206.835251 202.105286,208.690460 
	C202.156311,209.068802 201.989807,208.988586 201.624954,209.036072 
	C200.612488,209.670883 199.964859,210.258224 199.277130,210.881943 
	C198.041382,207.417786 198.657059,202.660156 192.960953,203.028381 
z"/>
<path fill="#250103" opacity="1.000000" stroke="none" 
	d="
M193.130127,203.332657 
	C198.657059,202.660156 198.041382,207.417786 199.277130,210.881943 
	C199.964859,210.258224 200.612488,209.670883 201.539642,209.000549 
	C201.863388,209.378036 201.907578,209.838531 201.955643,210.646118 
	C201.246307,211.991974 200.533112,212.990723 199.720016,214.129333 
	C197.456512,210.430435 195.377899,207.033676 193.130127,203.332657 
z"/>
<path fill="#250103" opacity="1.000000" stroke="none" 
	d="
M205.315887,203.872009 
	C205.001770,201.871536 205.040771,199.861526 205.011902,197.513733 
	C207.161865,198.040344 209.379730,198.904770 212.971878,200.304825 
	C209.625702,201.934952 207.647369,202.898712 205.315887,203.872009 
z"/>
<path fill="#250103" opacity="1.000000" stroke="none" 
	d="
M201.092667,190.532349 
	C199.630341,192.561325 198.173843,194.212128 196.388885,195.944260 
	C196.960724,192.787338 197.861023,189.549088 198.761322,186.310837 
	C199.285049,186.332031 199.808777,186.353210 200.332504,186.374390 
	C200.587830,187.634323 200.843155,188.894241 201.092667,190.532349 
z"/>
<path fill="#250103" opacity="1.000000" stroke="none" 
	d="
M192.621033,197.985962 
	C192.685440,199.354019 192.376434,200.726028 192.073944,202.443420 
	C190.704254,202.283325 189.328064,201.777832 187.951874,201.272339 
	C187.933884,200.843140 187.915894,200.413925 187.897888,199.984726 
	C189.347809,199.319778 190.797729,198.654831 192.621033,197.985962 
z"/>
<path fill="#250103" opacity="1.000000" stroke="none" 
	d="
M201.746048,191.793030 
	C201.526489,191.858063 201.327942,191.641266 201.123810,191.154510 
	C201.355972,191.064011 201.572250,191.272888 201.746048,191.793030 
z"/>
<path fill="#71091A" opacity="1.000000" stroke="none" 
	d="
M205.037170,209.300003 
	C205.500977,209.023575 206.000137,209.045319 206.874207,209.122070 
	C207.005112,209.681015 206.761063,210.184982 206.290405,210.858551 
	C205.733368,210.551498 205.402939,210.074829 205.037170,209.300003 
z"/>
</svg>